<svg width="64" height="40" viewBox="0 0 64 40" fill="none" xmlns="http://www.w3.org/2000/svg">
<path fill-rule="evenodd" clip-rule="evenodd" d="M50 10L42.5 4H50.0969L58.3147 10.5742L39 33.7518L34.6034 28.4759L50 10ZM27.9031 4H36.0969L44.3147 10.5742L32 25.3518L19.6853 10.5742L27.9031 4ZM14 10L29.3966 28.4759L25 33.7518L5.68535 10.5742L13.9031 4H21.5L14 10ZM37.5 0H26.5H12.5L0 10L25 40L32 31.6L39 40L64 10L51.5 0H37.5ZM34.5215 10.5742L28.9368 17.2759L31.5402 20.4L40.2068 10L35.2068 6H28.8037L34.5215 10.5742Z" fill="white"/>
</svg>
